{"title":"Prova d'orchestra / Rehearsal (Federico Fellini, 1978)","uid":9089414,"size":1462326980,"categoryP":"video","categoryS":"movies","magnet":"?xt=urn:btih:6b00cc88832cc5509f4ac5aa8a5351e52a235310&amp;dn=Prova+d%27orchestra+%2F+Rehearsal+%28Federico+Fellini%2C+1978%29&amp;tr=udp%3A%2F%2Ftracker.openbittorrent.com%3A80&amp;tr=udp%3A%2F%2Fopen.demonii.com%3A1337&amp;tr=udp%3A%2F%2Ftracker.coppersurfer.tk%3A6969&amp;tr=udp%3A%2F%2Fexodus.desync.com%3A6969","seeders":5,"leechers":1,"uploader":"moonflux","files":1,"time":1382561958,"description":"In a Medieval Roman chapel, now an oratorio, an elderly factotum sets up for rehearsal. The musicians arrive, joking and teasing. A union shop steward explains that a TV crew is there, talking to them is optional, and there will be no extra compensation. Musicians talk about their instruments. The German conductor arrives and puts them through their paces. He yells, he insults. The shop steward calls a 20 minute break. The conductor retreats to his dressing room and talks about how the world of music has changed, moving away from respect for the conductor. He returns to the rehearsal to find the orchestra in full revolt. What can bring them back to the music? \n\nGeneral\nUnique ID                                : 225058152813369999123933631036146104646 (0xA9509FA27DD84DFB82E128501D30B946)\nComplete name                            : Prova.D'Orchestra.AKA.Orchestra.Rehearsal.1978.DVDRip.x264.mkv\nFormat                                   : Matroska\nFormat version                           : Version 2\nFile size                                : 1.36 GiB\nDuration                                 : 1h 9mn\nOverall bit rate                         : 2 807 Kbps\nEncoded date                             : UTC 2013-10-23 14:31:25\nWriting application                      : mkvmerge v4.4.0 ('Die Wiederkehr') built on Oct 31 2010 21:52:48\nWriting library                          : libebml v1.0.0 + libmatroska v1.0.0\n\nVideo\nID                                       : 1\nFormat                                   : AVC\nFormat/Info                              : Advanced Video Codec\nFormat profile                           : &lt;a class=&quot;__cf_email__&quot; href=&quot;/cdn-cgi/l/email-protection&quot; data-cfemail=&quot;1058797778505c233e21&quot;&gt;[email&amp;#160;protected]&lt;/a&gt;&lt;script cf-hash='f9e31' type=&quot;text/javascript&quot;&gt;\n/* &lt;![CDATA[ */!function(){try{var t=&quot;currentScript&quot;in document?document.currentScript:function(){for(var t=document.getElementsByTagName(&quot;script&quot;),e=t.length;e--;)if(t[e].getAttribute(&quot;cf-hash&quot;))return t[e]}();if(t&amp;&amp;t.previousSibling){var e,r,n,i,c=t.previousSibling,a=c.getAttribute(&quot;data-cfemail&quot;);if(a){for(e=&quot;&quot;,r=parseInt(a.substr(0,2),16),n=2;a.length-n;n+=2)i=parseInt(a.substr(n,2),16)^r,e+=String.fromCharCode(i);e=document.createTextNode(e),c.parentNode.replaceChild(e,c)}}}catch(u){}}();/* ]]&gt; */&lt;/script&gt;\nFormat settings, CABAC                   : Yes\nFormat settings, ReFrames                : 11 frames\nMuxing mode                              : Header stripping\nCodec ID                                 : V_MPEG4/ISO/AVC\nDuration                                 : 1h 9mn\nBit rate                                 : 2 528 Kbps\nWidth                                    : 702 pixels\nHeight                                   : 570 pixels\nDisplay aspect ratio                     : 16:9\nOriginal display aspect ratio            : 16:9\nFrame rate mode                          : Constant\nFrame rate                               : 25.000 fps\nColor space                              : YUV\nChroma subsampling                       : 4:2:0\nBit depth                                : 8 bits\nScan type                                : Progressive\nBits/(Pixel*Frame)                       : 0.253\nStream size                              : 1.23 GiB (90%)\nWriting library                          : x264 core 130 r2273 b3065e6\nEncoding settings                        : cabac=1 // deblock=1:-2:-2 / analyse=0x3:0x133 / me=umh / subme=11 / psy=1 / psy_rd=1.05:0.00 // me_range=32 / chroma_me=1 / trellis=2 / 8x8dct=1 / cqm=0 / deadzone=21,11 / fast_pskip=0 / chroma_qp_offset=-2 / threads=12 / lookahead_threads=2 / sliced_threads=0 / nr=0 / decimate=1 / interlaced=0 / bluray_compat=0 / constrained_intra=0 / bframes=9 / b_pyramid=2 / b_adapt=2 / b_bias=0 / direct=3 / weightb=1 / open_gop=0 / weightp=2 / keyint=250 / keyint_min=25 / scenecut=40 / intra_refresh=0 / rc_lookahead=60 / rc=crf / mbtree=1 / crf=16.0 / qcomp=0.60 / qpmin=0 / qpmax=69 / qpstep=4 / ip_ratio=1.40 / aq=2:1.00\nLanguage                                 : English\nDefault                                  : Yes\nForced                                   : No\nColor primaries                          : BT.601 PAL\nTransfer characteristics                 : BT.709\nMatrix coefficients                      : BT.601\n\nAudio\nID                                       : 2\nFormat                                   : AC-3\nFormat/Info                              : Audio Coding 3\nFormat profile                           : Dolby Digital\nMode extension                           : CM (complete main)\nFormat settings, Endianness              : Big\nMuxing mode                              : Header stripping\nCodec ID                                 : A_AC3\nDuration                                 : 1h 9mn\nBit rate mode                            : Constant\nBit rate                                 : 224 Kbps\nChannel(s)                               : 2 channels\nChannel positions                        : Front: L R\nSampling rate                            : 48.0 KHz\nBit depth                                : 16 bits\nCompression mode                         : Lossy\nStream size                              : 111 MiB (8%)\nLanguage                                 : Italian\nDefault                                  : Yes\nForced                                   : No\n\nText\nID                                       : 3\nFormat                                   : UTF-8\nCodec ID                                 : S_TEXT/UTF8\nCodec ID/Info                            : UTF-8 Plain Text\nLanguage                                 : English\nDefault                                  : Yes\nForced                                   : No\n","torrent":{"xt":"urn:btih:6b00cc88832cc5509f4ac5aa8a5351e52a235310","amp;dn":"Prova+d%27orchestra+%2F+Rehearsal+%28Federico+Fellini%2C+1978%29","amp;tr":["udp%3A%2F%2Ftracker.openbittorrent.com%3A80","udp%3A%2F%2Fopen.demonii.com%3A1337","udp%3A%2F%2Ftracker.coppersurfer.tk%3A6969","udp%3A%2F%2Fexodus.desync.com%3A6969"],"infoHash":"6b00cc88832cc5509f4ac5aa8a5351e52a235310","infoHashBuffer":{"type":"Buffer","data":[107,0,204,136,131,44,197,80,159,74,197,170,138,83,81,229,42,35,83,16]},"announce":[],"urlList":[]}}